<?xml version="1.0" encoding="UTF-8"?>
<svg width="482px" height="228px" viewBox="0 0 482 228" version="1.1" xmlns="http://www.w3.org/2000/svg" xmlns:xlink="http://www.w3.org/1999/xlink">
    <!-- Generator: Sketch 54.1 (76490) - https://sketchapp.com -->
    <title>Group 7</title>
    <desc>Created with Sketch.</desc>
    <g id="Page-1" stroke="none" stroke-width="1" fill="none" fill-rule="evenodd">
        <g id="Group-7" fill="#000000" fill-rule="nonzero">
            <path d="M335.57473,110.185518 C335.57473,129.969053 319.391904,146.062305 299.498251,146.062305 C279.604599,146.062305 263.418274,129.969053 263.418274,110.185518 C263.418274,90.4019827 279.604599,74.3087309 299.498251,74.3087309 C319.391904,74.3087309 335.57473,90.4019827 335.57473,110.185518 L335.57473,110.185518 Z M355.961529,108.839486 C355.237549,78.4789945 330.19561,54 299.498251,54 C268.346219,54 243,79.2059209 243,110.185518 C243,141.165115 268.346219,166.371036 299.498251,166.371036 C313.204867,166.371036 325.781794,161.487758 335.57473,153.383743 L335.57473,166.176261 L355.692223,181 L355.993005,110.19943 L355.993005,110.185518 L355.993005,110.178562 L356,108.863833 L355.961529,108.839486 Z" id="Fill-1"></path>
            <path d="M461.569633,109.422874 C461.569633,129.289985 445.388308,145.451223 425.496504,145.451223 C405.604697,145.451223 389.419873,129.289985 389.419873,109.422874 C389.419873,89.5557636 405.604697,73.3945253 425.496504,73.3945253 C445.388308,73.3945253 461.569633,89.5557636 461.569633,109.422874 L461.569633,109.422874 Z M482,228 L481.986011,107.969865 C481.164181,77.5195355 456.149047,53 425.496504,53 C394.343867,53 369,78.3124036 369,109.422874 C369,140.533345 394.343867,165.845748 425.496504,165.845748 C439.205341,165.845748 451.788096,160.938349 461.580127,152.793113 L461.580127,212.883113 L482,228 Z" id="Fill-3"></path>
            <polygon id="Fill-6" points="101.385829 53.3288643 69.1600938 53.3288643 24.1483119 98.2289275 23.7355203 17.5349979 0 0 0.444275768 164 24.1658031 164 24.1658031 130.357231 37.8683871 116.685167 77.762252 164 106 164 53.6734101 100.922861"></polygon>
            <path d="M210.351622,62.5164887 C206.805857,59.1916282 202.660416,56.7338185 197.91181,55.1465559 C193.159718,53.5557971 187.842814,52 182.721154,52 C174.423297,52 164.594869,53.2061797 158.287801,56.1814231 C151.977246,59.1601624 147.266992,63.4744401 147.266992,63.4744401 L147.357641,55.4856847 L127,55.4856847 L127,163 L147.357641,163 L147.357641,114.647926 C147.357641,108.449211 148.061913,104.215345 148.752239,96.5936881 C149.644781,86.6610603 157.09542,81.2804499 157.09542,81.2804499 C157.09542,81.2804499 160.59586,77.630445 166.034791,75.30549 C169.402745,73.8650665 173.851512,73.4105641 177.655277,73.2147785 C187.59876,72.7043371 191.91504,75.8613813 194.177774,78.053482 C196.440509,80.2490786 198.25,83.1229329 199.606246,86.6715486 C200.965979,90.2271567 201.642359,94.4959841 201.642359,99.4885192 L201.642359,163 L222,163 L222,93.8177265 C222,86.7100068 220.943592,80.5497496 218.834263,75.3334593 C216.721447,70.1136728 213.8939,65.8448454 210.351622,62.5164887" id="Fill-8"></path>
        </g>
    </g>
</svg>