<?xml version="1.0" encoding="UTF-8"?>
<svg width="160px" height="22px" viewBox="0 0 160 22" version="1.1" xmlns="http://www.w3.org/2000/svg" xmlns:xlink="http://www.w3.org/1999/xlink">
    <!-- Generator: Sketch 54.1 (76490) - https://sketchapp.com -->
    <title>Otherland</title>
    <desc>Created with Sketch.</desc>
    <g id="Page-1" stroke="none" stroke-width="1" fill="none" fill-rule="evenodd">
        <g id="Otherland" fill="#000000" fill-rule="nonzero">
            <path d="M4.343,12.455 C4.343,9.307 6.72,6.365 10.171,6.365 C13.622,6.365 15.155,8.953 15.155,11.848 C15.155,14.743 13.281,17.85 9.539,17.85 C6.186,17.85 4.343,15.249 4.343,12.457 M0,12.798 C0,17.288 3.16,21.585 9.25,21.585 C15.417,21.585 19.5,17.267 19.5,11.318 C19.5,6.12 15.657,2.628 10.271,2.628 C4.287,2.628 0,7.002 0,12.798 M111.445,13.324 C111.285,12.844 111.305,12.492 112.06,12.317 C112.589,12.197 113.292,12.065 114.079,11.928 C114.373,12.833 114.662,13.774 114.939,14.755 C115.326,16.125 115.364,16.993 114.999,16.993 C113.955,16.993 111.712,14.128 111.445,13.32 M146.387,5.313 C146.387,4.849 146.513,4.455 147,4.455 C151.325,4.455 155.635,7.294 155.635,11.34 C155.635,14.237 151.914,16.349 147.588,17.317 C146.638,11.979 146.388,5.957 146.388,5.317 M105.185,4.07 C103.817,6.642 102.082,10.798 100.319,13.856 C98.797,16.498 97.608,17.767 94.263,17.767 C91.955,17.767 91.108,16.584 91.108,13.84 C91.108,9.869 92.28,4.532 92.583,3.219 C92.6007103,3.14091846 92.5860343,3.0589929 92.5423205,2.99191474 C92.4986066,2.92483658 92.4295839,2.878328 92.351,2.863 L88.945,2.247 C88.793076,2.22126582 88.6473025,2.31801039 88.612,2.468 C88.305,3.793 87.028,9.558 87.028,14.069 C87.028,18.097 89.014,21.719 94.263,21.651 C98.346,21.651 101.434,20.082 104.041,15.371 C106.016,11.799 108.165,6.758 109.521,4.422 C110.059,3.494 110.653,3.447 111.137,4.434 C111.657,5.492 112.264,6.898 112.887,8.546 C111.96,8.713 111.167,8.872 110.622,8.987 C108.582,9.418 107.482,10.723 107.482,12.584 C107.482,13.561 107.809,15.042 109.572,17.314 C111.14,19.338 113.538,20.961 115.572,20.961 C118.442,20.961 119.672,18.125 118.746,14.182 C118.529605,13.2267763 118.279448,12.2795159 117.996,11.342 C119.571,11.137 120.972,10.992 121.633,10.992 C122.193,10.992 122.409,10.972 122.409,11.888 C122.409,14.16 122.339,16.419 122.206,20.015 C122.200912,20.1602132 122.302323,20.2875063 122.445,20.315 L125.938,20.964 C126.079,20.99 126.218,20.909 126.267,20.774 C126.57,19.915 127.683,16.841 129.05,13.714 C131.263,8.667 132.364,7.101 133.434,7.101 C134.391,7.101 135.025,9.535 135.025,13.545 C135.025,19.005 137.087,21.595 142.782,21.595 C149.42,21.595 159.999,18.509 159.999,11.078 C160,4.813 152.777,0.686 146.743,0.686 C143.31,0.686 142.305,2.249 142.305,5.502 C142.305,8.818 142.972,14.687 143.52,17.876 C143.125,17.896 142.736,17.906 142.353,17.906 C139.776,17.906 139.003,16.801 139.003,12.451 C139.003,7.271 137.925,3.198 133.615,3.198 C129.943,3.198 127.831,7.036 126.147,11.285 C126.138078,11.311325 126.111196,11.3271214 126.083857,11.322105 C126.056517,11.3170886 126.036995,11.2927777 126.038,11.265 C125.946,8.685 124.995,7.268 122.683,7.268 C121.309,7.268 119.057,7.542 116.819,7.884 C116.328658,6.5922724 115.802454,5.3144442 115.241,4.052 C113.824,0.858 112.23,0.034 110.324,0.034 C108.521,0.034 106.959,0.732 105.182,4.07 M34.807,16.054 C34.807,14.72 35.937,13.052 38.172,12.433 C37.942,16.653 36.851,17.551 35.901,17.551 C35.317,17.551 34.807,16.996 34.807,16.051 M74.273,5.256 C75.2984138,5.13198164 76.3301269,5.06720742 77.363,5.062 C79.268,5.062 80.511,5.733 80.511,7.489 C80.511,9.244 78.454,10.769 74.37,11.029 C74.37,9.099 74.338,7.119 74.273,5.256 M73.657,0.001 L70.176,0.355 C70.0161246,0.372334346 69.8998415,0.514903603 69.915,0.675 C69.955,1.101 69.991,1.553 70.024,2.024 C66.924,2.597 63.726,3.261 59.96,3.261 C58.778,3.261 57.66,3.219 56.89,3.181 C56.29,3.151 55.759,3.564 55.635,4.156 C55.2193648,6.13551019 54.8940283,8.13290967 54.66,10.142 C53.66,10.058 52.66,9.939 51.654,9.802 C51.606,6.229 50.889,2.921 50.654,1.941 C50.6353525,1.86509094 50.5871468,1.7997798 50.5201035,1.75959138 C50.4530602,1.71940295 50.372738,1.70766933 50.297,1.727 L46.912,2.612 C46.7584165,2.65227977 46.6645625,2.80722747 46.7,2.962 C46.893,3.792 47.443,6.382 47.555,9.205 C45.79,8.948 44.015,8.716 42.228,8.607 C41.9,2.7 40.091,0.156 36.106,0.156 C32.25,0.156 29.755,1.386 25.189,1.386 C22.534,1.386 20.061,0.656 19.233,0.462 C19.1563023,0.443373618 19.0753188,0.457155293 19.0090997,0.500103111 C18.9428806,0.543050929 18.8972711,0.61137384 18.883,0.689 L18.2,3.836 C18.1844237,3.91254754 18.2000593,3.99214586 18.2434337,4.0571136 C18.2868082,4.12208134 18.3543298,4.16703899 18.431,4.182 C19.22,4.325 21.493,4.853 24.103,4.988 C23.889,7.812 23.36,13.918 22.377,20.036 C22.352,20.196 22.459,20.346 22.617,20.372 L26.071,20.942 C26.2296535,20.9665963 26.3784041,20.8584953 26.404,20.7 C27.477,14.035 28.014,7.556 28.209,4.877 C30.949,4.603 32.376,4.016 35.117,4.016 C37.358,4.016 38.041,4.983 38.185,8.72 C34.189,9.44 31.042,12.307 31.042,16.435 C31.042,19.551 33.384,21.579 36.173,21.579 C39.826,21.579 41.962,18.353 42.257,12.243 C44.002,12.341 45.739,12.546 47.459,12.856 C47.2624987,15.1360005 46.8438458,17.3913673 46.209,19.59 C46.1868151,19.6655936 46.1957884,19.7469203 46.2339205,19.8158587 C46.2720526,19.884797 46.3361752,19.9356189 46.412,19.957 L49.792,20.883 C49.942,20.923 50.096,20.84 50.146,20.693 C50.41,19.883 51.198,17.336 51.521,13.53 C52.415,13.653 53.365,13.752 54.414,13.811 L54.414,14.131 C54.409,18.198 56.501,21.135 61.111,21.135 C63.717,21.135 66.492,20.079 67.321,19.738 C67.4598536,19.6798536 67.5320512,19.5259473 67.488,19.382 L66.558,16.252 C66.533529,16.1721893 66.4762836,16.1065442 66.4005449,16.0714411 C66.3248062,16.0363381 66.2377158,16.035087 66.161,16.068 C65.401,16.411 63.112,17.257 60.985,17.257 C59.265,17.257 58.536,16.294 58.49,14.582 C58.4833267,14.3347117 58.4833267,14.0872883 58.49,13.84 C61.793,13.716 63.56,13.293 64.179,13.08 C64.3257077,13.0279219 64.4063875,12.8705085 64.363,12.721 L63.668,9.887 C63.6463989,9.81233236 63.5960135,9.74930791 63.5279335,9.71179825 C63.4598534,9.6742886 63.3796587,9.66536805 63.305,9.687 C62.762,9.854 61.38,10.175 58.805,10.258 C59.032,8.522 59.298,7.112 59.298,7.112 C63.442,7.112 66.96,6.454 70.215,5.883 C70.381,11.23 70.267,17.472 70.054,20.578 C70.044,20.739 70.164,20.878 70.324,20.89 L73.814,21.157 C73.8917401,21.1636071 73.9688344,21.138391 74.027644,21.0871211 C74.0864536,21.0358512 74.1219458,20.9629149 74.126,20.885 C74.23,19.379 74.312,17.15 74.351,14.636 C75.0251363,14.6014576 75.6972364,14.5347148 76.365,14.436 C77.763,18.096 80.213,20.63 83.205,21.983 C83.2756511,22.0084802 83.3535767,22.0045087 83.4212712,21.9719777 C83.4889658,21.9394467 83.5407533,21.8810838 83.565,21.81 L84.899,18.44 C84.9471651,18.3032438 84.8923969,18.1514818 84.768,18.077 C83.3,17.119 80.971,15.34 80.232,13.34 C83.292,11.957 84.863,9.647 84.863,7.123 C84.863,3.385 81.688,1.215 77.085,1.215 C76.0788246,1.21802229 75.0735995,1.2771139 74.074,1.392 C74.044,1.002 74.014,0.625 73.98,0.265 C73.9669935,0.114673959 73.8408866,-0.000561625704 73.69,0 L73.659,0" id="Shape"></path>
        </g>
    </g>
</svg>