<?xml version="1.0" encoding="UTF-8"?>
<svg width="174px" height="32px" viewBox="0 0 174 32" version="1.1" xmlns="http://www.w3.org/2000/svg" xmlns:xlink="http://www.w3.org/1999/xlink">
    <!-- Generator: Sketch 53.1 (72631) - https://sketchapp.com -->
    <title>logo-black@1,5x</title>
    <desc>Created with Sketch.</desc>
    <g id="Page-1" stroke="none" stroke-width="1" fill="none" fill-rule="evenodd">
        <g id="Product" transform="translate(-35.000000, -27.000000)" fill="#151B26">
            <g id="Navigation" transform="translate(35.000000, 23.000000)">
                <g id="logo-black" transform="translate(0.000000, 4.000000)">
                    <path d="M16.0122293,31.7064968 C7.34452469,31.7064968 0.317961783,24.6799339 0.317961783,16.0122293 C0.317961783,7.34452469 7.34452469,0.317961783 16.0122293,0.317961783 C24.6799339,0.317961783 31.7064968,7.34452469 31.7064968,16.0122293 C31.6963883,24.6757434 24.6757434,31.6963883 16.0122293,31.7064968 Z M16.0122293,1.40433121 C7.94450996,1.40433121 1.40433121,7.94450996 1.40433121,16.0122293 C1.40433121,24.0799486 7.94450996,30.6201274 16.0122293,30.6201274 C24.0799486,30.6201274 30.6201274,24.0799486 30.6201274,16.0122293 C30.6111412,7.9482351 24.0762235,1.41331742 16.0122293,1.40433121 Z" id="Shape" fill-rule="nonzero"></path>
                    <path d="M16.0122293,31.8185987 C9.61795437,31.8194231 3.85288086,27.9681304 1.40551695,22.0607484 C-1.04184695,16.1533663 0.310523769,9.35339417 4.83195897,4.83195897 C9.35339417,0.310523769 16.1533663,-1.04184695 22.0607484,1.40551695 C27.9681304,3.85288086 31.8194231,9.61795437 31.8185987,16.0122293 C31.8084901,24.7376555 24.7376555,31.8084901 16.0122293,31.8185987 L16.0122293,31.8185987 Z M16.0122293,0.430063694 C9.70845107,0.428414839 4.02450493,4.22455917 1.61120125,10.0480966 C-0.802102421,15.871634 0.530583129,22.5755064 4.98773606,27.0332424 C9.44488899,31.4909784 16.148587,32.8245409 21.97244,30.4119991 C27.7962931,27.9994572 31.5931809,22.3160077 31.5923567,16.0122293 C31.5822532,7.41109072 24.6133649,0.440379124 16.0122293,0.428025478 L16.0122293,0.430063694 Z M16.0122293,30.7342675 C7.88259778,30.7342675 1.2922293,24.143899 1.2922293,16.0142675 C1.2922293,7.884636 7.88259778,1.29426752 16.0122293,1.29426752 C24.1418608,1.29426752 30.7322293,7.884636 30.7322293,16.0142675 C30.72212,24.1393779 24.137341,30.7232451 16.0122293,30.7322293 L16.0122293,30.7342675 Z M16.0122293,1.51847134 C8.00642213,1.51847134 1.51643312,8.00846035 1.51643312,16.0142675 C1.51643312,24.0200747 8.00642213,30.5100637 16.0122293,30.5100637 C24.0180365,30.5100637 30.5080255,24.0200747 30.5080255,16.0142675 C30.5001625,8.01138949 24.0151061,1.52542126 16.0122293,1.51643312 L16.0122293,1.51847134 Z" id="Shape" fill-rule="nonzero"></path>
                    <rect id="Rectangle" x="9.69375796" y="4.08254777" width="4.85707006" height="1.08840764"></rect>
                    <path d="M14.6629299,5.28101911 L9.57961783,5.28101911 L9.57961783,3.97044586 L14.6629299,3.97044586 L14.6629299,5.28101911 Z M9.80585987,5.05681529 L14.4387261,5.05681529 L14.4387261,4.19464968 L9.80585987,4.19464968 L9.80585987,5.05681529 Z" id="Shape" fill-rule="nonzero"></path>
                    <rect id="Rectangle" x="6.93401274" y="6.49987261" width="6.39796178" height="1.08840764"></rect>
                    <path d="M13.4522293,7.70038217 L6.82191083,7.70038217 L6.82191083,6.3877707 L13.4522293,6.3877707 L13.4522293,7.70038217 Z M7.04815287,7.47414013 L13.2198726,7.47414013 L13.2198726,6.61197452 L7.04815287,6.61197452 L7.04815287,7.47414013 Z" id="Shape" fill-rule="nonzero"></path>
                    <rect id="Rectangle" x="5.1811465" y="8.91719745" width="12.263949" height="1.08840764"></rect>
                    <path d="M17.5571975,10.117707 L5.06700637,10.117707 L5.06700637,8.80509554 L17.5571975,8.80509554 L17.5571975,10.117707 Z M5.29936306,9.89350318 L17.3248408,9.89350318 L17.3248408,9.02929936 L5.29936306,9.02929936 L5.29936306,9.89350318 Z" id="Shape" fill-rule="nonzero"></path>
                    <rect id="Rectangle" x="25.3248408" y="8.91719745" width="1.70598726" height="1.08840764"></rect>
                    <path d="M27.1449682,10.117707 L25.2127389,10.117707 L25.2127389,8.80509554 L27.1449682,8.80509554 L27.1449682,10.117707 Z M25.4389809,9.89350318 L26.9187261,9.89350318 L26.9187261,9.02929936 L25.4389809,9.02929936 L25.4389809,9.89350318 Z" id="Shape" fill-rule="nonzero"></path>
                    <rect id="Rectangle" x="5.97401274" y="11.3365605" width="8.36076433" height="1.08840764"></rect>
                    <path d="M14.4448408,12.5350318 L5.85987261,12.5350318 L5.85987261,11.2224204 L14.4448408,11.2224204 L14.4448408,12.5350318 Z M6.08815287,12.310828 L14.2206369,12.310828 L14.2206369,11.4486624 L6.08611465,11.4486624 L6.08815287,12.310828 Z" id="Shape" fill-rule="nonzero"></path>
                    <rect id="Rectangle" x="24.5054777" y="11.3365605" width="4.23949045" height="1.08840764"></rect>
                    <path d="M28.8570701,12.5350318 L24.3913376,12.5350318 L24.3913376,11.2224204 L28.8570701,11.2224204 L28.8570701,12.5350318 Z M24.6175796,12.310828 L28.6328662,12.310828 L28.6328662,11.4486624 L24.6175796,11.4486624 L24.6175796,12.310828 Z" id="Shape" fill-rule="nonzero"></path>
                    <rect id="Rectangle" x="7.15210191" y="13.7538854" width="2.75974522" height="1.08840764"></rect>
                    <path d="M10.023949,14.9543949 L7.04,14.9543949 L7.04,13.6417834 L10.023949,13.6417834 L10.023949,14.9543949 Z M7.26420382,14.7281529 L9.79974522,14.7281529 L9.79974522,13.8598726 L7.26420382,13.8598726 L7.26420382,14.7281529 Z" id="Shape" fill-rule="nonzero"></path>
                    <rect id="Rectangle" x="25.750828" y="13.7538854" width="3.4710828" height="1.08840764"></rect>
                    <path d="M29.3503185,14.9543949 L25.6203822,14.9543949 L25.6203822,13.6417834 L29.3503185,13.6417834 L29.3503185,14.9543949 Z M25.8853503,14.7281529 L29.0975796,14.7281529 L29.0975796,13.8598726 L25.8853503,13.8598726 L25.8853503,14.7281529 Z" id="Shape" fill-rule="nonzero"></path>
                    <rect id="Rectangle" x="11.5301911" y="13.7538854" width="1.80178344" height="1.08840764"></rect>
                    <path d="M13.4522293,14.9543949 L11.4140127,14.9543949 L11.4140127,13.6417834 L13.4522293,13.6417834 L13.4522293,14.9543949 Z M11.6504459,14.7281529 L13.2280255,14.7281529 L13.2280255,13.8598726 L11.642293,13.8598726 L11.6504459,14.7281529 Z" id="Shape" fill-rule="nonzero"></path>
                    <rect id="Rectangle" x="9.69375796" y="16.1712102" width="2.12382166" height="1.08840764"></rect>
                    <path d="M11.9296815,17.3717197 L9.57961783,17.3717197 L9.57961783,16.0591083 L11.9296815,16.0591083 L11.9296815,17.3717197 Z M9.80585987,17.1454777 L11.7054777,17.1454777 L11.7054777,16.2833121 L9.80585987,16.2833121 L9.80585987,17.1454777 Z" id="Shape" fill-rule="nonzero"></path>
                    <rect id="Rectangle" x="27.5648408" y="16.1712102" width="1.38598726" height="1.08840764"></rect>
                    <path d="M29.0629299,17.3717197 L27.4527389,17.3717197 L27.4527389,16.0591083 L29.0629299,16.0591083 L29.0629299,17.3717197 Z M27.6769427,17.1454777 L28.8387261,17.1454777 L28.8387261,16.2833121 L27.6769427,16.2833121 L27.6769427,17.1454777 Z" id="Shape" fill-rule="nonzero"></path>
                    <rect id="Rectangle" x="14.550828" y="18.588535" width="4.97936306" height="1.08840764"></rect>
                    <path d="M19.642293,19.7890446 L14.4387261,19.7890446 L14.4387261,18.4764331 L19.642293,18.4764331 L19.642293,19.7890446 Z M14.6629299,19.566879 L19.4180892,19.566879 L19.4180892,18.7026752 L14.6629299,18.7026752 L14.6629299,19.566879 Z" id="Shape" fill-rule="nonzero"></path>
                    <rect id="Rectangle" x="13.3319745" y="21.0078981" width="11.2326115" height="1.08840764"></rect>
                    <path d="M24.6766879,22.2165605 L13.2198726,22.2165605 L13.2198726,20.9059873 L24.6766879,20.9059873 L24.6766879,22.2165605 Z M13.4522293,21.9821656 L24.4585987,21.9821656 L24.4585987,21.12 L13.4522293,21.12 L13.4522293,21.9821656 Z" id="Shape" fill-rule="nonzero"></path>
                    <rect id="Rectangle" x="14.5426752" y="23.4252229" width="8.75210191" height="1.08840764"></rect>
                    <path d="M23.406879,24.6257325 L14.4387261,24.6257325 L14.4387261,23.313121 L23.406879,23.313121 L23.406879,24.6257325 Z M14.6547771,24.3994904 L23.1826752,24.3994904 L23.1826752,23.5373248 L14.6547771,23.5373248 L14.6547771,24.3994904 Z" id="Shape" fill-rule="nonzero"></path>
                    <rect id="Rectangle" x="15.9327389" y="25.8425478" width="4.85707006" height="1.08840764"></rect>
                    <path d="M20.9019108,27.0430573 L15.8185987,27.0430573 L15.8185987,25.7304459 L20.9019108,25.7304459 L20.9019108,27.0430573 Z M16.0448408,26.8188535 L20.6756688,26.8188535 L20.6756688,25.9546497 L16.0448408,25.9546497 L16.0448408,26.8188535 Z" id="Shape" fill-rule="nonzero"></path>
                    <rect id="Rectangle" x="15.3763057" y="28.2598726" width="2.62929936" height="1.08636943"></rect>
                    <path d="M18.117707,29.4603822 L15.2642038,29.4603822 L15.2642038,28.1477707 L18.117707,28.1477707 L18.117707,29.4603822 Z M15.4904459,29.2361783 L17.8955414,29.2361783 L17.8955414,28.3740127 L15.4904459,28.3740127 L15.4904459,29.2361783 Z" id="Shape" fill-rule="nonzero"></path>
                    <rect id="Rectangle" x="15.9327389" y="4.08254777" width="2.07898089" height="1.08840764"></rect>
                    <path d="M18.1238217,5.28101911 L15.8185987,5.28101911 L15.8185987,3.97044586 L18.1238217,3.97044586 L18.1238217,5.28101911 Z M16.0448408,5.05681529 L17.8996178,5.05681529 L17.8996178,4.19464968 L16.0448408,4.19464968 L16.0448408,5.05681529 Z" id="Shape" fill-rule="nonzero"></path>
                    <path d="M101.197452,29.1648408 L101.197452,5.44203822 C101.545987,5.42369427 101.847643,5.3910828 102.151338,5.3910828 C104.464713,5.3910828 106.780127,5.34624204 109.093503,5.40942675 C111.635159,5.47872611 114.042293,6.08815287 116.184459,7.52917197 C118.734268,9.2433121 120.140637,11.670828 120.668535,14.6629299 C121.081716,16.8659685 120.965753,19.13564 120.330191,21.2850955 C119.11949,25.3228025 116.321019,27.6993631 112.287389,28.6838217 C110.919215,29.0250839 109.512926,29.1894821 108.10293,29.1729936 C105.84051,29.1464968 103.567898,29.1648408 101.197452,29.1648408 Z M104.254777,26.5294268 C105.477707,26.5294268 106.615032,26.5844586 107.740127,26.5151592 C108.985478,26.4397452 110.25121,26.3745223 111.455796,26.0850955 C114.374522,25.3859873 116.321019,23.5903185 117.203567,20.6654777 C117.654013,19.1735032 117.682548,17.6652229 117.621401,16.1385987 C117.444076,11.7605096 114.547771,8.62165605 110.202293,8.21808917 C108.492229,8.05910828 106.76586,8.06929936 105.047643,8.01426752 C104.781118,8.02317185 104.515522,8.05041246 104.252739,8.09579618 L104.254777,26.5294268 Z" id="Shape" fill-rule="nonzero"></path>
                    <path d="M161.581656,13.2667516 L161.581656,10.3949045 L164.583949,10.3949045 L164.583949,29.1648408 C163.927643,29.1648408 163.310064,29.1648408 162.692484,29.1648408 C162.350064,29.1648408 162.007643,29.1301911 161.591847,29.1077707 L161.591847,25.8466242 C161.316688,26.1625478 161.163822,26.3256051 161.025223,26.4988535 C159.559745,28.3556688 157.670318,29.3523567 155.287643,29.4481529 C152.988535,29.533758 150.876943,29.0690446 149.024204,27.613758 C147.784819,26.6379846 146.862704,25.3165229 146.374522,23.8165605 C145.392102,20.9059873 145.385987,17.9628025 146.578344,15.1052229 C147.801274,12.1498089 150.100382,10.5192357 153.263694,10.0912102 C154.26924,9.93423993 155.293053,9.93423993 156.298599,10.0912102 C157.933706,10.3427692 159.432653,11.1487321 160.544204,12.3740127 C160.827516,12.6838217 161.092484,13.0119745 161.35949,13.3319745 L161.581656,13.2667516 Z M161.469554,19.736051 C161.453248,19.4221656 161.434904,19.1103185 161.418599,18.7984713 C161.25758,15.7289172 159.033885,12.2170701 154.531465,12.6430573 C152.446369,12.846879 150.887134,13.8007643 149.923057,15.6066242 C148.588025,18.1034395 148.600255,20.724586 149.64586,23.3049682 C151.423185,27.6850955 157.087389,27.670828 159.443567,25.1821656 C160.909045,23.6433121 161.475669,21.8089172 161.469554,19.736051 Z" id="Shape" fill-rule="nonzero"></path>
                    <path d="M142.241019,20.4657325 L127.661656,20.4657325 C127.227516,23.0705732 129.253503,25.9424204 131.958217,26.6211465 C135.192866,27.4364331 137.88535,26.0096815 138.935032,22.8769427 L142.110573,22.8769427 C141.578599,25.053758 140.492229,26.7332484 138.706752,27.9724841 C135.488408,30.2145223 129.867006,30.0616561 126.846369,26.7495541 C125.486879,25.2596178 124.732739,23.4884076 124.414777,21.5133758 C124.083572,19.6145483 124.260061,17.6619153 124.926369,15.8532484 C126.198217,12.4820382 128.67465,10.588535 132.247643,10.0647134 C133.5252,9.86854192 134.829213,9.93232138 136.081529,10.2522293 C139.228535,11.0532484 141.091465,13.1546497 142.02293,16.1630573 C142.442803,17.5286624 142.402038,18.9309554 142.241019,20.4657325 Z M139.169427,18.2603822 C139.126624,14.6364331 136.258854,12.5187261 133.19949,12.6349045 C130.604841,12.7307006 127.804331,14.6038217 127.682038,18.2603822 L139.169427,18.2603822 Z" id="Shape" fill-rule="nonzero"></path>
                    <path d="M86.4366879,29.4583439 C81.2901911,29.5643312 76.6817834,25.9383439 76.724586,19.6749045 C76.7694268,13.5215287 81.2086624,9.94038217 86.7118471,9.95464968 C92.7368153,9.9689172 96.2568153,14.5793631 96.2343949,19.811465 C96.2038217,25.3105732 91.8216561,29.6010191 86.4366879,29.4583439 Z M92.9589809,19.6912102 C92.9385987,19.3385987 92.922293,18.9859873 92.893758,18.635414 C92.6471338,15.68 90.6924841,13.1811465 87.4945223,12.724586 C84.3861736,12.2368382 81.3811612,14.0691628 80.3913376,17.0557962 C79.8848919,18.5473396 79.8072119,20.1510785 80.1671338,21.684586 C81.3350318,26.8636943 87.0216561,28.1559236 90.4519745,25.3921019 C92.2721019,23.9205096 92.9814013,21.9678981 92.9630573,19.6912102 L92.9589809,19.6912102 Z" id="Shape" fill-rule="nonzero"></path>
                    <path d="M48.9171975,29.1118471 L45.8802548,29.1118471 L45.8802548,5.46853503 C46.1676433,5.44 46.4631847,5.38496815 46.7607643,5.38496815 C49.1149045,5.38496815 51.4690446,5.38496815 53.8231847,5.38496815 C55.0379676,5.38188141 56.2415377,5.61733241 57.3656051,6.07796178 C59.943949,7.13375796 61.2973248,9.09044586 61.5541401,11.8216561 C61.6816479,12.9551058 61.5420421,14.1026661 61.1464968,15.1724841 C60.0723567,17.9363057 57.9057325,19.2 55.1113376,19.4935032 C53.5174522,19.6606369 51.9011465,19.6178344 50.2950318,19.6626752 C49.8710828,19.6749045 49.4471338,19.6626752 48.9192357,19.6626752 L48.9171975,29.1118471 Z M48.9294268,17.186242 C51.0002548,17.0965605 52.9569427,17.0904459 54.8973248,16.9049682 C56.5034395,16.7500637 57.6713376,15.8145223 58.1442038,14.2552866 C58.4940251,13.0807794 58.4748157,11.8271863 58.089172,10.663949 C57.8033713,9.62335939 57.0150727,8.79526322 55.9898089,8.45859873 C55.2534058,8.2043681 54.4863932,8.0494576 53.7090446,7.99796178 C52.3801274,7.92458599 51.0450955,7.97146497 49.7121019,7.98165605 C49.4479846,8.00030438 49.1852478,8.0350183 48.9253503,8.0856051 L48.9294268,17.186242 Z" id="Shape" fill-rule="nonzero"></path>
                    <path d="M173.41758,5.21171975 L173.41758,29.1077707 L170.564076,29.1077707 C170.335796,28.3250955 170.244076,7.6433121 170.470318,5.21171975 L173.411465,5.21171975 L173.41758,5.21171975 Z" id="Path"></path>
                    <path d="M74.6965605,10.3949045 L74.6965605,13.5867516 C73.8140127,13.1994904 72.9396178,13.0201274 72.0305732,13.2321019 C70.1757962,13.6642038 69.2117197,14.6812739 68.8713376,17.1047134 C68.7560391,18.0786435 68.7049733,19.0591069 68.7184713,20.0397452 C68.6980892,22.6670064 68.7184713,25.2963057 68.7184713,27.9235669 L68.7184713,29.1179618 L65.797707,29.1179618 C65.5938854,28.3026752 65.524586,12.1375796 65.7304459,10.4030573 L68.649172,10.4030573 L68.649172,13.0629299 C69.4236943,11.9378344 70.0371975,10.88 71.1826752,10.4132484 C72.3281529,9.94649682 73.4940127,9.64280255 74.6965605,10.3949045 Z" id="Path"></path>
                </g>
            </g>
        </g>
    </g>
</svg>