<?xml version="1.0" encoding="UTF-8"?>
<svg width="300px" height="93px" viewBox="0 0 300 93" version="1.1" xmlns="http://www.w3.org/2000/svg" xmlns:xlink="http://www.w3.org/1999/xlink">
    <!-- Generator: Sketch 54.1 (76490) - https://sketchapp.com -->
    <title>Group 6</title>
    <desc>Created with Sketch.</desc>
    <g id="Page-1" stroke="none" stroke-width="1" fill="none" fill-rule="evenodd">
        <g id="Group-6" transform="translate(0.000000, 0.169454)" fill-rule="nonzero">
            <polygon id="Path" fill="#000000" style="mix-blend-mode: overlay;" points="101.291651 23.9950213 115.069931 0.130464775 61.7113379 0.130464775 61.7113379 0.20844372"></polygon>
            <polygon id="Path" fill="#000000" style="mix-blend-mode: overlay;" points="61.7113379 0.130464775 61.5853719 0.130464775 61.6483549 0.169454247"></polygon>
            <polygon id="Path" fill="#000000" style="mix-blend-mode: overlay;" points="61.5853719 0.130464775 8.10081278 0.130464775 21.837104 23.9200416 61.5853719 0.20544453"></polygon>
            <polygon id="Path" fill="#000000" style="mix-blend-mode: overlay;" points="61.4474092 92.5265178 61.5853719 92.7664531 61.5853719 92.6524838"></polygon>
            <polygon id="Path" fill="#000000" style="mix-blend-mode: overlay;" points="61.5853719 92.7664531 61.6483549 92.7094684 61.6303598 92.6914733"></polygon>
            <polygon id="Path" fill="#000000" style="mix-blend-mode: overlay;" points="61.7113379 92.6524838 122.843832 36.9485239 101.291651 23.9950213 61.7113379 92.5475122"></polygon>
            <polygon id="Path" fill="#000000" style="mix-blend-mode: overlay;" points="61.7113379 22.759355 84.3132354 22.759355 84.3132354 33.3914843 68.2885621 33.3914843 68.2885621 66.4875484 61.7113379 66.4875484 61.7113379 92.5475122 101.291651 23.9950213 61.7113379 0.20844372"></polygon>
            <polygon id="Path" fill="#000000" style="mix-blend-mode: overlay;" points="61.7113379 22.759355 84.3132354 22.759355 84.3132354 33.3914843 68.2885621 33.3914843 68.2885621 66.4875484 61.7113379 66.4875484 61.7113379 92.5475122 101.291651 23.9950213 61.7113379 0.20844372"></polygon>
            <polygon id="Path" fill="#000000" style="mix-blend-mode: overlay;" points="61.5853719 92.6524838 61.5853719 92.7664531 61.6303598 92.6914733"></polygon>
            <polygon id="Path" fill="#000000" style="mix-blend-mode: overlay;" points="61.5853719 92.6524838 61.5853719 92.7664531 61.6303598 92.6914733"></polygon>
            <polygon id="Path" fill="#000000" style="mix-blend-mode: overlay;" points="61.6483549 0.169454247 61.5853719 0.130464775 61.5853719 0.20544453"></polygon>
            <polygon id="Path" fill="#000000" style="mix-blend-mode: overlay;" points="61.6483549 0.169454247 61.5853719 0.130464775 61.5853719 0.20544453"></polygon>
            <polygon id="Path" fill="#000000" style="mix-blend-mode: overlay;" points="61.7113379 92.6524838 61.6483549 92.7094684 61.7113379 92.7664531"></polygon>
            <polygon id="Path" fill="#000000" style="mix-blend-mode: overlay;" points="-8.81072992e-13 36.9485239 61.4474092 92.5265178 21.837104 23.9200416"></polygon>
            <polygon id="Path" fill="#000000" style="mix-blend-mode: overlay;" points="61.5853719 66.4875484 55.1311146 66.4875484 55.1311146 33.3914843 39.1064413 33.3914843 39.1064413 22.759355 61.5853719 22.759355 61.5853719 0.20544453 21.837104 23.9200416 61.4474092 92.5265178 61.5853719 92.6524838"></polygon>
            <polygon id="Path" fill="#000000" style="mix-blend-mode: overlay;" points="61.5853719 66.4875484 55.1311146 66.4875484 55.1311146 33.3914843 39.1064413 33.3914843 39.1064413 22.759355 61.5853719 22.759355 61.5853719 0.20544453 21.837104 23.9200416 61.4474092 92.5265178 61.5853719 92.6524838"></polygon>
            <polygon id="Path" fill="#000000" style="mix-blend-mode: overlay;" points="61.7113379 0.20844372 61.7113379 0.130464775 61.6483549 0.169454247"></polygon>
            <polygon id="Path" fill="#000000" style="mix-blend-mode: overlay;" points="61.7113379 0.20844372 61.7113379 0.130464775 61.6483549 0.169454247"></polygon>
            <polygon id="Path" fill="#000000" style="mix-blend-mode: overlay;" points="61.7113379 92.5475122 61.6303598 92.6914733 61.6483549 92.7094684 61.7113379 92.6524838"></polygon>
            <polygon id="Path" fill="#000000" style="mix-blend-mode: overlay;" points="61.7113379 92.5475122 61.6303598 92.6914733 61.6483549 92.7094684 61.7113379 92.6524838"></polygon>
            <polygon id="Path" fill="#000000" style="mix-blend-mode: overlay;" points="61.5853719 66.4875484 61.5853719 92.6524838 61.6303598 92.6914733 61.7113379 92.5475122 61.7113379 66.4875484"></polygon>
            <polygon id="Path" fill="#000000" style="mix-blend-mode: overlay;" points="61.5853719 66.4875484 61.5853719 92.6524838 61.6303598 92.6914733 61.7113379 92.5475122 61.7113379 66.4875484"></polygon>
            <polygon id="Path" fill="#000000" style="mix-blend-mode: overlay;" points="61.5853719 66.4875484 61.5853719 92.6524838 61.6303598 92.6914733 61.7113379 92.5475122 61.7113379 66.4875484"></polygon>
            <polygon id="Path" fill="#000000" style="mix-blend-mode: overlay;" points="61.7113379 0.20844372 61.6483549 0.169454247 61.5853719 0.20544453 61.5853719 22.759355 61.7113379 22.759355"></polygon>
            <polygon id="Path" fill="#000000" style="mix-blend-mode: overlay;" points="61.7113379 0.20844372 61.6483549 0.169454247 61.5853719 0.20544453 61.5853719 22.759355 61.7113379 22.759355"></polygon>
            <polygon id="Path" fill="#000000" style="mix-blend-mode: overlay;" points="61.7113379 0.20844372 61.6483549 0.169454247 61.5853719 0.20544453 61.5853719 22.759355 61.7113379 22.759355"></polygon>
            <polygon id="Path" fill="#FFFFFF" points="68.2885621 66.4875484 68.2885621 33.3914843 84.3132354 33.3914843 84.3132354 22.759355 61.7113379 22.759355 61.5853719 22.759355 39.1064413 22.759355 39.1064413 33.3914843 55.1311146 33.3914843 55.1311146 66.4875484 61.5853719 66.4875484 61.7113379 66.4875484"></polygon>
            <polygon id="Path" fill="#231F20" points="140.308117 28.4098293 131.088606 28.4098293 131.088606 24.0190149 154.62925 24.0190149 154.62925 28.4098293 145.409739 28.4098293 145.409739 52.1034321 140.311116 52.1034321"></polygon>
            <path d="M158.357244,24.0190149 L167.417797,24.0190149 C170.464974,24.0190149 171.847601,24.2559509 173.077269,24.8108011 C175.88751,26.0764594 177.66603,28.766733 177.66603,32.4857289 C177.66603,35.8478211 175.884511,38.9759765 172.918312,40.1606566 L172.918312,40.2386356 C173.290677,40.6599095 173.609975,41.1252579 173.869055,41.6242614 L179.645496,52.1214272 L173.953033,52.1214272 L168.374539,41.6242614 L163.455867,41.6242614 L163.455867,52.1214272 L158.357244,52.1214272 L158.357244,24.0190149 Z M168.050626,37.1944575 C170.779889,37.1944575 172.483429,35.5718956 172.483429,32.7616544 C172.483429,30.0623832 171.33474,28.4098293 167.339818,28.4098293 L163.455867,28.4098293 L163.455867,37.1944575 L168.050626,37.1944575 Z" id="Shape" fill="#231F20"></path>
            <polygon id="Path" fill="#231F20" points="184.384216 24.0190149 189.48284 24.0190149 189.48284 52.1124296 184.384216 52.1124296"></polygon>
            <polygon id="Path" fill="#231F20" points="196.611915 24.0190149 201.710538 24.0190149 201.710538 47.7126176 213.857259 47.7126176 213.857259 52.1034321 196.611915 52.1034321"></polygon>
            <path d="M230.03789,23.5451428 C238.306657,23.5451428 244.559969,29.8434423 244.559969,37.8692753 C244.559969,46.1380427 238.309656,52.5893009 230.03789,52.5893009 C221.766123,52.5893009 215.515811,46.1410419 215.515811,37.8692753 C215.524808,29.8224479 221.775121,23.5451428 230.03789,23.5451428 Z M230.03789,47.9195617 C235.181501,47.9195617 239.29639,43.6457157 239.29639,37.8692753 C239.29639,32.329771 235.181501,28.214882 230.03789,28.214882 C224.894279,28.214882 220.77939,32.329771 220.77939,37.8692753 C220.785388,43.6427165 224.900277,47.9165625 230.03789,47.9165625 L230.03789,47.9195617 Z" id="Shape" fill="#231F20"></path>
            <path d="M262.33317,23.5451428 C269.231308,23.5451428 272.77935,27.1051816 272.77935,27.1051816 L270.248033,30.9051556 C268.130634,29.1893514 265.496178,28.2382843 262.771052,28.2058844 C256.472752,28.2058844 253.116659,32.5577094 253.116659,37.8602777 C253.116659,43.9546322 257.270537,47.9105641 262.534116,47.9105641 C266.768972,47.9105641 269.576214,44.9833545 269.576214,44.9833545 L269.576214,41.7052396 L265.26038,41.7052396 L265.26038,37.3204235 L274.161976,37.3204235 L274.161976,52.118428 L269.810151,52.118428 L269.810151,50.7717916 C269.810151,50.1719536 269.849141,49.5721155 269.849141,49.5721155 L269.771162,49.5721155 C269.771162,49.5721155 266.843952,52.5713057 261.619363,52.5713057 C254.220361,52.5713057 247.85008,46.8338549 247.85008,38.0102372 C247.85008,29.8734342 253.983424,23.5451428 262.33317,23.5451428 Z" id="Path" fill="#231F20"></path>
            <path d="M285.558899,40.3586032 L276.225419,24.0190149 L282.001859,24.0190149 L286.392674,32.2877823 C287.292431,34.0273126 288.054225,36.0847571 288.093215,36.0457676 L288.171194,36.0457676 C288.171194,36.0457676 288.96298,34.0273126 289.871735,32.2877823 L294.22056,24.0190149 L299.997001,24.0190149 L290.660522,40.3586032 L290.660522,52.1094305 L285.561898,52.1094305 L285.558899,40.3586032 Z" id="Path" fill="#231F20"></path>
            <polygon id="Path" fill="#231F20" points="134.879583 57.9848441 141.414818 57.9848441 141.414818 59.6913833 136.862047 59.6913833 136.862047 62.5496116 140.536055 62.5496116 140.536055 64.2561508 136.862047 64.2561508 136.862047 67.1923581 141.660752 67.1923581 141.660752 68.8988973 134.879583 68.8988973"></polygon>
            <path d="M143.718196,57.9848441 L147.440191,57.9848441 C150.808282,57.9848441 153.006688,59.9823048 153.006688,63.4283743 C153.006688,66.8744439 150.808282,68.9018965 147.440191,68.9018965 L143.718196,68.9018965 L143.718196,57.9848441 Z M147.317224,67.1923581 C149.530627,67.1923581 150.946245,65.8847111 150.946245,63.4253751 C150.946245,60.9660392 149.500635,59.6883841 147.317224,59.6883841 L145.700661,59.6883841 L145.700661,67.1863597 L147.317224,67.1923581 Z" id="Shape" fill="#231F20"></path>
            <path d="M154.92617,57.9848441 L156.908635,57.9848441 L156.908635,64.9789557 C156.908635,66.4395613 157.862377,67.270337 159.307987,67.270337 C160.753597,67.270337 161.737331,66.4395613 161.737331,64.9639597 L161.737331,57.9848441 L163.719796,57.9848441 L163.719796,64.9789557 C163.719796,67.4232957 161.950273,69.0848471 159.322983,69.0848471 C156.695692,69.0848471 154.911174,67.4232957 154.911174,64.9789557 L154.92617,57.9848441 Z" id="Path" fill="#231F20"></path>
            <path d="M171.202775,57.8018935 C173.863057,57.8018935 175.230688,59.3014886 175.230688,59.3014886 L174.276945,60.7770902 C173.444407,60.0627547 172.392253,59.6552301 171.29575,59.622402 C168.989373,59.622402 167.636738,61.3439371 167.636738,63.3743889 C167.636738,65.4498285 169.034361,67.2733362 171.310746,67.2733362 C172.503675,67.231115 173.635909,66.7368346 174.477891,65.8907095 L175.524608,67.3213232 C174.397765,68.4734374 172.847149,69.1121175 171.235766,69.0878463 C167.900667,69.0878463 165.59429,66.6135144 165.59429,63.3893849 C165.56613,61.8953717 166.148673,60.4545291 167.207267,59.3998978 C168.265861,58.3452665 169.708878,57.7681315 171.202775,57.8018935 L171.202775,57.8018935 Z" id="Path" fill="#231F20"></path>
            <path d="M182.779649,66.1126496 L178.949684,66.1126496 L178.025933,68.9108941 L175.980485,68.9108941 L179.822448,57.9968409 L181.897888,57.9968409 L185.73985,68.9108941 L183.700401,68.9108941 L182.779649,66.1126496 Z M180.85117,59.8773331 C180.85117,59.8773331 180.605237,60.9540424 180.389295,61.5688764 L179.420556,64.4900877 L182.278785,64.4900877 L181.310046,61.5688764 C181.109101,60.9540424 180.878163,59.8773331 180.878163,59.8773331 L180.85117,59.8773331 Z" id="Shape" fill="#231F20"></path>
            <polygon id="Path" fill="#231F20" points="188.775031 59.6913833 185.190998 59.6913833 185.190998 57.9848441 194.347526 57.9848441 194.347526 59.6913833 190.748498 59.6913833 190.748498 68.8988973 188.766033 68.8988973"></polygon>
            <polygon id="Path" fill="#231F20" points="195.784138 57.9848441 197.766603 57.9848441 197.766603 68.8988973 195.784138 68.8988973"></polygon>
            <path d="M205.420536,57.8018935 C206.913929,57.7677102 208.357322,58.3407269 209.420629,59.3899019 C210.483936,60.4390769 211.076213,61.8746741 211.062013,63.3683905 C211.062013,66.5805233 208.632669,69.0878463 205.420536,69.0878463 C202.208404,69.0878463 199.77906,66.5835224 199.77906,63.3683905 C199.76486,61.8746741 200.357136,60.4390769 201.420444,59.3899019 C202.483751,58.3407269 203.927144,57.7677102 205.420536,57.8018935 L205.420536,57.8018935 Z M205.420536,67.2733362 C207.417997,67.2733362 209.019565,65.6117848 209.019565,63.3743889 C209.019565,61.2209703 207.420996,59.622402 205.420536,59.622402 C203.420077,59.622402 201.821508,61.2209703 201.821508,63.3743889 C201.824507,65.6087856 203.423076,67.270337 205.420536,67.270337 L205.420536,67.2733362 Z" id="Shape" fill="#231F20"></path>
            <path d="M213.077469,57.9848441 L215.059934,57.9848441 L219.195817,64.2831436 C219.528098,64.8291726 219.828519,65.3939635 220.095574,65.9746868 L220.125566,65.9746868 C220.125566,65.9746868 220.017595,64.9309686 220.017595,64.2831436 L220.017595,57.9848441 L221.985064,57.9848441 L221.985064,68.8988973 L220.017595,68.8988973 L215.881712,62.6005978 C215.549308,62.0546387 215.248884,61.4898406 214.981955,60.9090546 L214.951963,60.9090546 C214.951963,60.9090546 215.059934,61.9557719 215.059934,62.6005978 L215.059934,68.8988973 L213.077469,68.8988973 L213.077469,57.9848441 Z" id="Path" fill="#231F20"></path>
            <path d="M228.73924,66.1126496 C228.73924,66.1126496 229.923921,67.2643386 231.459506,67.2643386 C232.290282,67.2643386 233.043078,66.8324552 233.043078,65.9416957 C233.043078,63.9892229 227.893469,64.3281314 227.893469,60.9750367 C227.893469,59.1755226 229.462045,57.8078919 231.552481,57.8078919 C233.705899,57.8078919 234.812601,58.9775761 234.812601,58.9775761 L233.951833,60.5911404 C233.280021,60.0158192 232.435932,59.6802937 231.552481,59.6373979 C230.62873,59.6373979 229.908925,60.174253 229.908925,60.9450448 C229.908925,62.8825217 235.043538,62.4056505 235.043538,65.8967079 C235.043538,67.633239 233.720895,69.0938447 231.44451,69.0938447 C230.03941,69.1147134 228.68386,68.5750838 227.677527,67.5942496 L228.73924,66.1126496 Z" id="Path" fill="#231F20"></path>
            <polygon id="Path" fill="#231F20" points="237.011007 57.9848441 243.534246 57.9848441 243.534246 59.6913833 238.993472 59.6913833 238.993472 62.5496116 242.66748 62.5496116 242.66748 64.2561508 238.993472 64.2561508 238.993472 67.1923581 243.792176 67.1923581 243.792176 68.8988973 237.011007 68.8988973"></polygon>
            <path d="M245.849621,57.9848441 L249.37067,57.9848441 C250.55535,57.9848441 251.092205,58.077819 251.569076,58.2847631 C252.660782,58.7766303 253.353595,59.8233477 253.353595,61.2659582 C253.353595,62.5736051 252.660782,63.7882772 251.509093,64.2471533 L251.509093,64.2771452 C251.65342,64.4404397 251.777301,64.6207214 251.877993,64.8140002 L254.121387,68.8869005 L251.907985,68.8869005 L249.73957,64.8140002 L247.832085,64.8140002 L247.832085,68.8869005 L245.849621,68.8869005 L245.849621,57.9848441 Z M249.616604,63.1134594 C250.678317,63.1134594 251.338139,62.4836294 251.338139,61.3919242 C251.338139,60.348206 250.891259,59.7003809 249.340678,59.7003809 L247.841083,59.7003809 L247.841083,63.1134594 L249.616604,63.1134594 Z" id="Shape" fill="#231F20"></path>
            <path d="M254.487288,57.9848441 L256.625711,57.9848441 L259.025063,65.1019225 C259.241005,65.7317524 259.423956,66.7004909 259.438951,66.7004909 L259.468943,66.7004909 C259.483939,66.7004909 259.669889,65.7317524 259.882832,65.1019225 L262.282184,57.9848441 L264.402611,57.9848441 L260.419687,68.8988973 L258.470213,68.8988973 L254.487288,57.9848441 Z" id="Path" fill="#231F20"></path>
            <polygon id="Path" fill="#231F20" points="265.785238 57.9848441 267.767703 57.9848441 267.767703 68.8988973 265.785238 68.8988973"></polygon>
            <path d="M275.394643,57.8018935 C278.054925,57.8018935 279.422556,59.3014886 279.422556,59.3014886 L278.468813,60.7770902 C277.636275,60.0627547 276.584121,59.6552301 275.487618,59.622402 C273.181241,59.622402 271.828606,61.3439371 271.828606,63.3743889 C271.828606,65.4498285 273.226229,67.2733362 275.502614,67.2733362 C276.695543,67.231115 277.827777,66.7368346 278.669759,65.8907095 L279.716477,67.3213232 C278.589633,68.4734374 277.039017,69.1121175 275.427635,69.0878463 C272.092535,69.0878463 269.786158,66.6135144 269.786158,63.3893849 C269.757999,61.8953717 270.340541,60.4545291 271.399135,59.3998978 C272.457729,58.3452665 273.900746,57.7681315 275.394643,57.8018935 L275.394643,57.8018935 Z" id="Path" fill="#231F20"></path>
            <polygon id="Path" fill="#231F20" points="281.542983 57.9848441 288.078219 57.9848441 288.078219 59.6913833 283.525448 59.6913833 283.525448 62.5496116 287.199456 62.5496116 287.199456 64.2561508 283.525448 64.2561508 283.525448 67.1923581 288.324152 67.1923581 288.324152 68.8988973 281.542983 68.8988973"></polygon>
            <path d="M290.621532,66.1126496 C290.621532,66.1126496 291.806212,67.2643386 293.341798,67.2643386 C294.172573,67.2643386 294.92537,66.8324552 294.92537,65.9416957 C294.92537,63.9892229 289.775761,64.3281314 289.775761,60.9750367 C289.775761,59.1755226 291.344337,57.8078919 293.434773,57.8078919 C295.588191,57.8078919 296.694892,58.9775761 296.694892,58.9775761 L295.834125,60.5911404 C295.162313,60.0158192 294.318224,59.6802937 293.434773,59.6373979 C292.511022,59.6373979 291.791216,60.174253 291.791216,60.9450448 C291.791216,62.8825217 296.92583,62.4056505 296.92583,65.8967079 C296.92583,67.633239 295.603187,69.0938447 293.326802,69.0938447 C291.921701,69.1147134 290.566152,68.5750838 289.559819,67.5942496 L290.621532,66.1126496 Z" id="Path" fill="#231F20"></path>
        </g>
    </g>
</svg>