<?xml version="1.0" encoding="UTF-8"?>
<svg width="213px" height="75px" viewBox="0 0 213 75" version="1.1" xmlns="http://www.w3.org/2000/svg" xmlns:xlink="http://www.w3.org/1999/xlink">
    <!-- Generator: Sketch 54.1 (76490) - https://sketchapp.com -->
    <title>UIPOrange 2</title>
    <desc>Created with Sketch.</desc>
    <g id="Page-1" stroke="none" stroke-width="1" fill="none" fill-rule="evenodd">
        <g id="UIPOrange-2" transform="translate(-5.000000, -1.000000)" fill="#000000" fill-rule="nonzero">
            <g id="UIPOrange">
                <path d="M5.5,1 L81,1 L81,76 L5.5,76 L5.5,1 Z M13.3,68.2 L73.1,68.2 L73.1,8.8 L13.3,8.8 L13.3,68.2 Z M43.5,20.3 L51.3,20.3 L51.3,43 C51.3,53.3 45.4,59.5 35.6,59.5 C25.9,59.5 20.2,53.4 20.2,43 L20.2,20.3 L28,20.3 L28,43 C28,48.7 30.4,52.1 35.8,52.1 C41,52.1 43.5,48.8 43.5,43 L43.5,20.3 Z M66.2,20.3 C66.2,23.1 64.2,24.9 61.4,24.9 C58.6,24.9 56.6,23 56.6,20.3 C56.6,17.5 58.6,15.5 61.4,15.5 C64.2,15.5 66.2,17.5 66.2,20.3 L66.2,20.3 Z M57.5,28.7 L65.3,28.7 L65.3,59.2 L57.5,59.2 L57.5,28.7 Z M117.7,33.4 C117.7,41.7 112.2,46.7 103.7,46.7 L96.6,46.7 L96.6,59.2 L88.8,59.2 L88.8,20.3 L103.7,20.3 C112.3,20.3 117.7,25.4 117.7,33.4 L117.7,33.4 Z M109.8,33.4 C109.8,29.1 107.3,26.6 102.9,26.6 L96.7,26.6 L96.7,40.4 L102.9,40.4 C107.3,40.4 109.8,37.9 109.8,33.4 L109.8,33.4 Z M144,28.7 L151.8,28.7 L151.8,59.2 L144,59.2 L144,55.8 C141.9,58.2 138.6,59.6 134,59.6 C125.7,59.6 119.8,53.1 119.8,44 C119.8,35 125.5,28.3 134,28.3 C138.5,28.3 141.9,29.9 144,32.5 L144,28.7 Z M144,43.9 C144,38.6 140.9,35 135.9,35 C130.9,35 127.8,38.4 127.8,43.9 C127.8,49 130.6,52.7 135.9,52.7 C140.6,52.7 144,49.3 144,43.9 L144,43.9 Z M170.9,52.5 L174,52.5 L174,59.1 L169.9,59.1 C162.5,59.1 159.3,55.6 159.3,48.4 L159.3,35.2 L155.6,35.2 L155.6,28.6 L159.3,28.6 L159.3,20.3 L167.1,20.3 L167.1,28.6 L174,28.6 L174,35.2 L167,35.2 L167,48.5 C167,51.2 167.8,52.5 170.9,52.5 L170.9,52.5 Z M207.7,41.4 L207.7,59.1 L199.9,59.1 L199.9,42.3 C199.9,37.7 197.5,34.7 192.9,34.7 C188.3,34.7 185.5,37.8 185.5,43 L185.5,59.2 L177.7,59.2 L177.7,18.5 L185.5,18.5 L185.5,31.8 C187.5,29.5 190.5,28.2 194.8,28.2 C202,28.2 207.7,33.4 207.7,41.4 L207.7,41.4 Z M206,18.5 L210.1,18.5 L210.1,19.3 L208.6,19.3 L208.6,24.1 L207.6,24.1 L207.6,19.3 L206,19.3 L206,18.5 Z M217.5,18.5 L217.5,24.1 L216.6,24.1 L216.6,19.8 L214.8,24.1 L214,24.1 L212.2,19.8 L212.2,24.1 L211.3,24.1 L211.3,18.5 L212.5,18.5 L214.3,22.9 L216.3,18.5 L217.5,18.5 Z" id="Shape"></path>
            </g>
        </g>
    </g>
</svg>